<svg width="128" height="128" viewBox="0 0 128 128" fill="none" xmlns="http://www.w3.org/2000/svg">
<g clip-path="url(#clip0_5_2)">
<rect width="128" height="128" rx="12" fill="#584998"/>
<rect width="128" height="128" rx="12" fill="url(#paint0_radial_5_2)" fill-opacity="0.2"/>
<path d="M57.1667 33.25C54.4482 33.25 51.8411 34.3299 49.9188 36.2522C47.9966 38.1744 46.9167 40.7815 46.9167 43.5V46.9167H36.6667C33.9482 46.9167 31.3411 47.9966 29.4188 49.9188C27.4966 51.8411 26.4167 54.4482 26.4167 57.1667V84.5C26.4167 87.2185 27.4966 89.8256 29.4188 91.7478C31.3411 93.6701 33.9482 94.75 36.6667 94.75H91.3333C94.0518 94.75 96.6589 93.6701 98.5812 91.7478C100.503 89.8256 101.583 87.2185 101.583 84.5V57.1667C101.583 54.4482 100.503 51.8411 98.5812 49.9188C96.6589 47.9966 94.0518 46.9167 91.3333 46.9167H81.0833V43.5C81.0833 40.7815 80.0034 38.1744 78.0812 36.2522C76.1589 34.3299 73.5518 33.25 70.8333 33.25H57.1667ZM57.1667 40.0833H70.8333C71.7395 40.0833 72.6085 40.4433 73.2493 41.0841C73.89 41.7248 74.25 42.5938 74.25 43.5V46.9167H53.75V43.5C53.75 42.5938 54.11 41.7248 54.7507 41.0841C55.3915 40.4433 56.2605 40.0833 57.1667 40.0833ZM36.6667 53.75H91.3333C92.2395 53.75 93.1085 54.11 93.7493 54.7507C94.39 55.3915 94.75 56.2605 94.75 57.1667V67.4167H70.8333V60.5833H57.1667V67.4167H33.25V57.1667C33.25 56.2605 33.61 55.3915 34.2507 54.7507C34.8915 54.11 35.7605 53.75 36.6667 53.75ZM60.5833 67.4167H67.4167V70.8333H60.5833V67.4167ZM33.25 73.6692C34.3194 74.045 35.4708 74.25 36.6667 74.25H57.1667V77.6667H70.8333V74.25H91.3333C92.5292 74.25 93.6806 74.045 94.75 73.6692V84.5C94.75 85.4062 94.39 86.2752 93.7493 86.916C93.1085 87.5567 92.2395 87.9167 91.3333 87.9167H36.6667C35.7605 87.9167 34.8915 87.5567 34.2507 86.916C33.61 86.2752 33.25 85.4062 33.25 84.5V73.6692Z" fill="white"/>
</g>
<defs>
<radialGradient id="paint0_radial_5_2" cx="0" cy="0" r="1" gradientUnits="userSpaceOnUse" gradientTransform="translate(64 64) rotate(90) scale(64)">
<stop stop-color="#584998"/>
<stop offset="0.5" stop-color="white" stop-opacity="0.5"/>
<stop offset="1" stop-color="#584998"/>
</radialGradient>
<clipPath id="clip0_5_2">
<rect width="128" height="128" fill="white"/>
</clipPath>
</defs>
</svg>
